<?xml version="1.0" encoding="UTF-8" standalone="no"?>
<!-- Created with Inkscape (http://www.inkscape.org/) -->

<svg
   width="26.38974mm"
   height="296.92441mm"
   viewBox="0 0 26.38974 296.92441"
   version="1.1"
   id="svg5"
   inkscape:version="1.1.2 (b8e25be833, 2022-02-05)"
   sodipodi:docname="col-C.svg"
   xmlns:inkscape="http://www.inkscape.org/namespaces/inkscape"
   xmlns:sodipodi="http://sodipodi.sourceforge.net/DTD/sodipodi-0.dtd"
   xmlns="http://www.w3.org/2000/svg"
   xmlns:svg="http://www.w3.org/2000/svg">
  <sodipodi:namedview
     id="namedview7"
     pagecolor="#ffffff"
     bordercolor="#666666"
     borderopacity="1.0"
     inkscape:pageshadow="2"
     inkscape:pageopacity="0.0"
     inkscape:pagecheckerboard="0"
     inkscape:document-units="mm"
     showgrid="false"
     inkscape:zoom="0.3599046"
     inkscape:cx="-848.83605"
     inkscape:cy="151.42902"
     inkscape:window-width="1920"
     inkscape:window-height="1001"
     inkscape:window-x="-9"
     inkscape:window-y="-9"
     inkscape:window-maximized="1"
     inkscape:current-layer="layer1"
     fit-margin-top="0"
     fit-margin-left="0"
     fit-margin-right="0"
     fit-margin-bottom="0" />
  <defs
     id="defs2" />
  <g
     inkscape:label="Layer 1"
     inkscape:groupmode="layer"
     id="layer1"
     transform="translate(-89.725918,-0.77295174)">
    <rect
       style="fill:#000000;stroke:#000000;stroke-width:10.8283;stroke-linejoin:round"
       id="rect846"
       width="88.912453"
       height="1111.4056"
       x="344.53574"
       y="8.3355427"
       transform="scale(0.26458333)"
       rx="9.7248001"
       ry="2.0838799" />
    <path
       style="fill:none;stroke:#ffffff;stroke-width:5.01062498;stroke-linecap:butt;stroke-linejoin:miter;stroke-opacity:1;stroke-miterlimit:4;stroke-dasharray:none"
       d="m 295.68828,28.488239 -49.11766,119.847071 9.82353,42.24119 -68.76471,107.07648"
       id="path855"
       transform="matrix(0.1322985,0,0,0.13313878,77.51107,7.2521634)" />
    <path
       style="fill:none;stroke:#ffffff;stroke-width:5.01062498;stroke-linecap:butt;stroke-linejoin:miter;stroke-opacity:1;stroke-miterlimit:4;stroke-dasharray:none"
       d="m 295.68828,28.488239 -71.71061,95.444501 47.15102,29.55186 -27.50802,90.48273"
       id="path855-1"
       transform="matrix(-0.1322985,0,0,0.13313878,128.98949,48.318385)"
       sodipodi:nodetypes="cccc" />
    <path
       style="fill:none;stroke:#ffffff;stroke-width:5.01062498;stroke-linecap:butt;stroke-linejoin:miter;stroke-opacity:1;stroke-miterlimit:4;stroke-dasharray:none"
       d="m 362.36917,28.488239 -95.32676,64.385103 44.37265,62.681888"
       id="path855-1-3"
       transform="matrix(-0.1322985,0,0,0.13313878,137.8151,112.35352)"
       sodipodi:nodetypes="ccc" />
    <path
       style="fill:#ffffff;stroke:#ffffff;stroke-width:5.01062498;stroke-linecap:butt;stroke-linejoin:miter;stroke-opacity:1;stroke-miterlimit:4;stroke-dasharray:none;fill-opacity:1"
       d="m 295.68828,28.488239 -70.72831,141.321331 46.16872,11.98201 -83.49925,28.01215"
       id="path855-9"
       transform="matrix(0.1322985,0,0,-0.13313878,77.261529,121.26208)"
       sodipodi:nodetypes="cccc" />
    <path
       style="fill:none;stroke:#ffffff;stroke-width:5.01062498;stroke-linecap:butt;stroke-linejoin:miter;stroke-opacity:1;stroke-miterlimit:4;stroke-dasharray:none"
       d="m 295.68828,28.488239 -49.11766,119.847071 9.82353,42.24119 -68.76471,107.07648"
       id="path855-90"
       transform="matrix(-0.1322985,0,0,-0.13313878,128.25094,284.69908)" />
    <path
       style="fill:none;stroke:#ffffff;stroke-width:5.01062;stroke-linecap:butt;stroke-linejoin:miter;stroke-miterlimit:4;stroke-dasharray:none;stroke-opacity:1"
       d="m 295.68828,28.488239 -71.71061,95.444501 47.15102,29.55186 -27.50802,90.48273"
       id="path855-1-0"
       transform="matrix(0.1322985,0,0,-0.13313878,77.301821,169.01989)"
       sodipodi:nodetypes="cccc" />
    <path
       style="fill:none;stroke:#ffffff;stroke-width:5.01062498;stroke-linecap:butt;stroke-linejoin:miter;stroke-opacity:1;stroke-miterlimit:4;stroke-dasharray:none"
       d="m 362.36917,28.488239 -95.32676,64.385103 44.37265,62.681888"
       id="path855-1-3-1"
       transform="matrix(0.1322985,0,0,-0.13313878,54.717869,213.99373)"
       sodipodi:nodetypes="ccc" />
    <path
       style="fill:none;stroke:#ffffff;stroke-width:5.01062498;stroke-linecap:butt;stroke-linejoin:miter;stroke-opacity:1;stroke-miterlimit:4;stroke-dasharray:none"
       d="m 295.68828,28.488239 -70.72831,141.321331 46.16872,11.98201 -83.49925,28.01215"
       id="path855-9-1"
       transform="matrix(-0.1322985,0,0,0.13313878,128.50048,156.40148)"
       sodipodi:nodetypes="cccc" />
    <path
       style="fill:#ffffff;fill-opacity:1;stroke:#ffffff;stroke-width:1.00157;stroke-linecap:butt;stroke-linejoin:miter;stroke-miterlimit:4;stroke-dasharray:none;stroke-opacity:1"
       d="M 5.5570282,60.432681 47.234739,110.44593 -2.6107431,136.84182 -2,55.570282 Z"
       id="path2073"
       transform="matrix(0.26458333,0,0,0.26458333,90.255085,0.77295174)"
       sodipodi:nodetypes="ccccc" />
    <path
       style="fill:#ffffff;fill-opacity:1;stroke:#ffffff;stroke-width:1.00157;stroke-linecap:butt;stroke-linejoin:miter;stroke-miterlimit:4;stroke-dasharray:none;stroke-opacity:1"
       d="M 5.5570282,60.432681 47.234739,110.44593 -2.6107431,136.84182 -2,55.570282 Z"
       id="path2073-9"
       transform="matrix(-0.26458333,0,0,-0.26458333,115.99757,259.75223)"
       sodipodi:nodetypes="ccccc" />
    <path
       style="fill:#ffffff;fill-opacity:1;stroke:#ffffff;stroke-width:1.00157;stroke-linecap:butt;stroke-linejoin:miter;stroke-miterlimit:4;stroke-dasharray:none;stroke-opacity:1"
       d="M 5.5570282,60.432681 19.796912,109.05667 -2.6107431,136.84182 -2,55.570282 Z"
       id="path2073-1"
       transform="matrix(0.26458333,0,0,-0.26458333,90.146318,195.28729)"
       sodipodi:nodetypes="ccccc" />
    <path
       style="fill:#ffffff;fill-opacity:1;stroke:#ffffff;stroke-width:1.00157;stroke-linecap:butt;stroke-linejoin:miter;stroke-miterlimit:4;stroke-dasharray:none;stroke-opacity:1"
       d="M 5.5570282,60.432681 19.796912,109.05667 -2.6107431,136.84182 -2,55.570282 Z"
       id="path2073-1-8"
       transform="matrix(-0.26458333,0,0,0.26458333,116.24911,100.96988)"
       sodipodi:nodetypes="ccccc" />
  </g>
</svg>
