<?xml version="1.0" encoding="UTF-8" standalone="no"?>
<!-- Created with Inkscape (http://www.inkscape.org/) -->

<svg
   width="38.680218mm"
   height="50.947197mm"
   viewBox="0 0 38.680217 50.947196"
   version="1.1"
   id="svg5"
   inkscape:version="1.1.2 (b8e25be833, 2022-02-05)"
   sodipodi:docname="note.svg"
   xmlns:inkscape="http://www.inkscape.org/namespaces/inkscape"
   xmlns:sodipodi="http://sodipodi.sourceforge.net/DTD/sodipodi-0.dtd"
   xmlns="http://www.w3.org/2000/svg"
   xmlns:svg="http://www.w3.org/2000/svg">
  <sodipodi:namedview
     id="namedview7"
     pagecolor="#ffffff"
     bordercolor="#666666"
     borderopacity="1.0"
     inkscape:pageshadow="2"
     inkscape:pageopacity="0.0"
     inkscape:pagecheckerboard="0"
     inkscape:document-units="mm"
     showgrid="false"
     inkscape:zoom="0.25449098"
     inkscape:cx="-497.07066"
     inkscape:cy="701.4001"
     inkscape:window-width="1920"
     inkscape:window-height="1001"
     inkscape:window-x="-9"
     inkscape:window-y="-9"
     inkscape:window-maximized="1"
     inkscape:current-layer="layer1"
     fit-margin-top="0"
     fit-margin-left="0"
     fit-margin-right="0"
     fit-margin-bottom="0" />
  <defs
     id="defs2" />
  <g
     inkscape:label="Layer 1"
     inkscape:groupmode="layer"
     id="layer1"
     transform="translate(-49.692745,-32.04918)">
    <rect
       style="fill:none;stroke:#000000;stroke-width:27.8348;stroke-linejoin:round;stroke-miterlimit:4;stroke-dasharray:none"
       id="rect846"
       width="495.96475"
       height="655.72931"
       x="191.71747"
       y="125.03313"
       transform="matrix(0.07384546,0,0,0.0745317,36.563017,23.767536)"
       rx="15.7176"
       ry="3.92945" />
    <path
       style="fill:#000000;fill-opacity:1;stroke:#000000;stroke-width:27.8348;stroke-linejoin:round;stroke-miterlimit:4;stroke-dasharray:none"
       id="path936"
       d="m 252.48325,271.64176 c 1.39307,0.38564 2.75123,0.93285 4.17922,1.15693 14.29353,2.24283 28.16693,-3.22857 41.11577,-8.54778 5.69618,-2.33992 11.30008,-4.89848 16.95012,-7.34772 18.92067,-8.41986 37.84619,-16.84378 57.01735,-24.68325 9.78293,-4.00043 18.38603,-8.25433 29.12653,-8.82095 4.50648,-0.23774 8.9832,0.87283 13.4748,1.30925 4.6465,1.88076 9.49337,3.32732 13.93951,5.64229 9.24737,4.81482 23.05346,14.98747 31.24943,21.07217 14.14739,10.50306 28.00299,21.42203 41.78582,32.396 11.4279,8.29767 23.11292,18.87799 37.73853,20.84536 8.03775,1.0812 12.71286,-0.40475 20.75688,-1.76488 14.91626,-3.73031 28.9955,-10.02156 42.98306,-16.26688 4.92531,-2.19911 9.87665,-4.34736 14.71787,-6.72589 7.93624,-3.89913 15.27793,-8.22335 22.93511,-12.59094 6.51805,-4.01134 13.0361,-8.02268 19.55414,-12.03402 0,0 -12.63202,4.94309 -12.63202,4.94309 v 0 c 1.1107,-0.40356 2.2214,-0.80712 3.33211,-1.21069 -7.32215,4.25341 -15.86534,9.35174 -23.37483,13.096 -4.84916,2.41781 -9.82292,4.57813 -14.76746,6.79436 -13.69571,6.13865 -27.50476,12.25535 -42.09761,15.97531 -7.5034,1.32306 -12.59432,2.82618 -20.16405,2.02396 -14.67077,-1.55476 -26.63336,-11.85701 -38.29474,-19.81754 -14.09134,-10.7206 -28.17689,-21.45985 -42.33254,-32.09464 -6.78771,-5.09943 -23.1174,-17.4136 -30.82044,-21.69525 -4.43763,-2.4666 -9.3099,-4.05368 -13.96484,-6.08052 -4.59381,-0.52122 -9.16259,-1.76635 -13.78143,-1.56365 -11.18483,0.49084 -19.78948,4.92104 -29.94237,9.13115 -19.06801,7.90695 -37.93777,16.28426 -56.85442,24.54284 -5.49763,2.35061 -10.95641,4.79426 -16.4929,7.05184 -12.27262,5.00431 -25.64399,10.50142 -39.22224,8.254 -1.28305,-0.21236 -2.48812,-0.75799 -3.73218,-1.13698 0,0 -12.38218,8.14703 -12.38218,8.14703 z"
       transform="matrix(0.07384546,0,0,0.0745317,36.563017,23.767536)" />
    <path
       style="fill:#000000;fill-opacity:1;stroke:#000000;stroke-width:27.8348;stroke-linejoin:round;stroke-miterlimit:4;stroke-dasharray:none"
       id="path971"
       d="m 236.87942,455.83491 c 2.07248,-0.30513 4.16298,-0.50624 6.21746,-0.91539 15.68916,-3.12452 30.87158,-8.3746 45.94633,-13.6204 17.5664,-6.11286 22.63558,-8.13914 39.7569,-14.58345 12.88682,-4.19305 28.32598,-11.68602 42.36156,-10.84715 14.32355,0.85608 26.27037,9.53511 37.922,16.8458 23.39206,16.47584 45.90945,34.26202 70.88648,48.37318 5.23364,2.95683 10.65309,5.57195 15.97964,8.35793 22.24151,10.87873 45.98876,18.36663 70.50212,21.90047 3.24022,0.4671 6.50884,0.70969 9.76326,1.06454 8.62185,0.3077 17.64295,1.42528 26.06264,-1.13354 7.03941,-2.13934 15.20436,-8.37963 20.17363,-11.4142 8.97541,-8.46777 16.07187,-18.62047 23.55762,-28.36103 11.89108,-15.47284 3.15381,-3.94702 14.50653,-19.02147 0,0 -12.19298,5.25436 -12.19298,5.25436 v 0 c -9.74414,13.04467 -4.10667,5.62913 -14.51564,19.00631 -7.71042,9.9091 -15.12859,20.22729 -24.74515,28.42416 2.90213,-1.48878 5.86655,-2.86194 8.7064,-4.46633 1.31366,-0.74216 -2.70137,1.36064 -4.11976,1.87507 -8.44092,3.06143 -17.62849,2.03386 -26.40786,1.98232 -3.33325,-0.26146 -6.68013,-0.38558 -9.99974,-0.78437 -24.68545,-2.96551 -48.63018,-10.37955 -71.0484,-21.0429 -5.3302,-2.75031 -10.76569,-5.30548 -15.99059,-8.25093 -24.92611,-14.05171 -47.19192,-32.12798 -70.48502,-48.59918 -11.53557,-7.54562 -23.62384,-16.78435 -38.00259,-17.83027 -14.17784,-1.0313 -30.61922,7.04628 -43.58672,11.36043 -17.94443,6.83545 -21.24208,8.2637 -39.65213,14.56274 -16.18299,5.53703 -32.61862,11.18065 -49.68652,13.21056 0,0 -11.90947,8.65274 -11.90947,8.65274 z"
       transform="matrix(0.07384546,0,0,0.0745317,36.563017,23.767536)" />
    <path
       style="fill:#000000;fill-opacity:1;stroke:#000000;stroke-width:27.8348;stroke-linejoin:round;stroke-miterlimit:4;stroke-dasharray:none"
       id="path975"
       d="m 272.81775,593.65219 c 0.76314,1.31655 1.44181,2.68582 2.28941,3.94965 4.77815,7.12458 10.41669,13.73918 15.75346,20.43763 14.5055,18.20657 -1.29209,-1.49212 13.6033,17.04405 6.1077,8.05233 13.37818,15.0922 20.46845,22.25425 4.84754,4.89663 6.80796,7.14285 12.13433,11.33424 1.81739,1.43012 3.77308,2.67514 5.65962,4.01271 6.05599,3.60849 12.77839,7.35693 20.11871,6.80368 5.30357,-0.39973 7.49241,-1.75547 12.45226,-3.74835 2.53124,-1.29959 5.06247,-2.59919 7.59371,-3.89879 0,0 10.74796,-8.62259 10.74796,-8.62259 v 0 c -2.44361,1.27744 -4.88723,2.55488 -7.33084,3.83232 -4.61949,2.02812 -6.8918,3.46361 -11.86854,4.07348 -7.1655,0.87809 -13.8468,-2.67582 -19.89658,-5.98114 -1.90521,-1.27237 -3.8812,-2.44468 -5.71564,-3.81712 -5.23437,-3.91614 -7.58819,-6.42015 -12.31224,-11.081 -7.15084,-7.05517 -14.3961,-14.07307 -20.58669,-22.01368 -9.95586,-12.50526 -3.81072,-4.6951 -13.43069,-17.1361 -5.16996,-6.68604 -10.60913,-13.33965 -14.90825,-20.64807 -0.7797,-1.32547 -1.36371,-2.75672 -2.04556,-4.13508 0,0 -12.72618,7.33991 -12.72618,7.33991 z"
       transform="matrix(0.07384546,0,0,0.0745317,36.563017,23.767536)" />
    <path
       style="fill:#000000;fill-opacity:1;stroke:#000000;stroke-width:27.8348;stroke-linejoin:round;stroke-miterlimit:4;stroke-dasharray:none"
       id="path977"
       d="m 453.85914,633.2041 c 14.32771,8.13397 30.14364,13.83179 46.59936,15.55133 3.70103,0.38674 7.43747,0.26935 11.15621,0.40403 9.01819,-0.53324 21.81358,-0.83292 30.07895,-5.19044 5.92824,-3.12539 11.76478,-6.44714 17.38794,-10.09299 1.99197,-1.29152 3.5859,-3.1121 5.37885,-4.66815 14.18572,-13.30681 27.05197,-27.91795 40.33831,-42.10073 1.63134,-1.07025 6.25413,-4.60959 4.894,-3.21076 -2.27955,2.34442 -6.49672,3.04464 -7.69196,6.08834 -0.6027,1.53478 3.28109,0.67428 4.72045,1.47865 2.05947,1.15092 3.89878,2.6885 5.62123,4.30071 4.61383,4.31851 8.12625,9.44299 11.92102,14.44738 8.22559,11.94901 15.96692,24.18236 21.85084,37.45863 0,0 12.25365,-6.92451 12.25365,-6.92451 v 0 c -6.28818,-13.18224 -14.40494,-25.27988 -22.48507,-37.42047 -4.98309,-6.88328 -10.01605,-15.06101 -17.31567,-19.84398 -1.54216,-1.01047 -3.31095,-2.60126 -5.09769,-2.14646 -11.07284,2.81851 -14.29759,5.7426 -21.46858,11.13346 -13.0792,14.38309 -25.96869,29.01427 -40.49986,41.97394 -1.87024,1.51067 -7.65825,3.27199 -5.61074,4.532 2.23098,1.37291 5.22934,-1.72504 6.91866,-3.72712 1.33641,-1.58384 -3.78265,1.71652 -5.75602,2.34924 -7.92025,2.53943 -16.37939,3.35421 -24.62824,3.75072 -3.72964,-0.0526 -7.4738,0.17536 -11.18891,-0.15772 -15.9735,-1.43214 -31.52858,-6.99709 -44.86179,-15.84607 0,0 -12.51494,7.86097 -12.51494,7.86097 z"
       transform="matrix(0.07384546,0,0,0.0745317,36.563017,23.767536)" />
  </g>
</svg>
