<?xml version="1.0" encoding="UTF-8" standalone="no"?>
<!-- Created with Inkscape (http://www.inkscape.org/) -->

<svg
   width="198.48062mm"
   height="240.74173mm"
   viewBox="0 0 198.48062 240.74173"
   version="1.1"
   id="svg5"
   inkscape:version="1.1.2 (b8e25be833, 2022-02-05)"
   sodipodi:docname="tree-before.svg"
   xmlns:inkscape="http://www.inkscape.org/namespaces/inkscape"
   xmlns:sodipodi="http://sodipodi.sourceforge.net/DTD/sodipodi-0.dtd"
   xmlns="http://www.w3.org/2000/svg"
   xmlns:svg="http://www.w3.org/2000/svg">
  <sodipodi:namedview
     id="namedview7"
     pagecolor="#ffffff"
     bordercolor="#666666"
     borderopacity="1.0"
     inkscape:pageshadow="2"
     inkscape:pageopacity="0.0"
     inkscape:pagecheckerboard="0"
     inkscape:document-units="mm"
     showgrid="false"
     inkscape:zoom="0.7198092"
     inkscape:cx="111.83519"
     inkscape:cy="488.32385"
     inkscape:window-width="1920"
     inkscape:window-height="1001"
     inkscape:window-x="-9"
     inkscape:window-y="-9"
     inkscape:window-maximized="1"
     inkscape:current-layer="layer1"
     fit-margin-top="0"
     fit-margin-left="0"
     fit-margin-right="0"
     fit-margin-bottom="0" />
  <defs
     id="defs2" />
  <g
     inkscape:label="Layer 1"
     inkscape:groupmode="layer"
     id="layer1"
     transform="translate(-11.946637,8.8027002)">
    <path
       style="fill:none;stroke:#000000;stroke-width:7.80472;stroke-linecap:butt;stroke-linejoin:miter;stroke-miterlimit:4;stroke-dasharray:none;stroke-opacity:1"
       d="m 308.06775,290.35472 c 0,0 35.07874,313.97209 -27.43783,404.2738 -62.51657,90.30171 -122.25462,100.0265 -122.25462,100.0265"
       id="path857"
       transform="matrix(0.26458333,0,0,0.26458333,0,-15.345837)"
       sodipodi:nodetypes="csc" />
    <path
       style="fill:none;stroke:#000000;stroke-width:7.80472;stroke-linecap:butt;stroke-linejoin:miter;stroke-miterlimit:4;stroke-dasharray:none;stroke-opacity:1"
       d="m 310.84626,303.55266 c 0,0 32.30023,300.77415 -30.21634,391.07586 -62.51657,90.30171 -122.25462,100.0265 -122.25462,100.0265"
       id="path857-8"
       transform="matrix(-0.26458333,0,0,0.26458333,198.18413,-15.036182)"
       sodipodi:nodetypes="csc" />
    <path
       style="fill:none;stroke:#000000;stroke-width:2.51339;stroke-linecap:butt;stroke-linejoin:miter;stroke-miterlimit:4;stroke-dasharray:none;stroke-opacity:1"
       d="M 338.97872,679.34669 C 244.50924,848.83605 200.05301,850.22531 200.05301,850.22531"
       id="path994"
       transform="matrix(0.2611873,-0.04225555,0.04225555,0.2611873,-25.89937,-9.4232356)" />
    <path
       style="fill:none;stroke:#000000;stroke-width:2.27228;stroke-linecap:butt;stroke-linejoin:miter;stroke-miterlimit:4;stroke-dasharray:none;stroke-opacity:1"
       d="M 316.41034,686.19675 C 283.19789,804.79992 200.05301,850.22531 200.05301,850.22531"
       id="path994-4"
       transform="matrix(-0.22801991,0,0,0.37561982,176.6264,-103.14281)"
       sodipodi:nodetypes="cc" />
    <ellipse
       style="fill:none;stroke:#000000;stroke-width:2.51339;stroke-linejoin:round;stroke-miterlimit:4;stroke-dasharray:none"
       id="path1219"
       cx="241.73073"
       cy="150.03976"
       transform="matrix(0.2399305,0.11152441,-0.11152441,0.2399305,31.8818,-27.211013)"
       rx="129.2009"
       ry="88.912453" />
    <ellipse
       style="fill:none;stroke:#000000;stroke-width:2.51339;stroke-linejoin:round;stroke-miterlimit:4;stroke-dasharray:none"
       id="path1219-3"
       cx="241.73073"
       cy="150.03976"
       transform="matrix(0.10709631,-0.24193949,0.24193949,0.10709631,-24.328866,94.335703)"
       rx="129.2009"
       ry="88.912453" />
    <ellipse
       style="fill:none;stroke:#000000;stroke-width:2.7838;stroke-linejoin:round;stroke-miterlimit:4;stroke-dasharray:none"
       id="path1219-4"
       cx="241.73073"
       cy="150.03976"
       transform="matrix(-0.19836897,0.13261397,-0.13184253,-0.19952967,117.90738,12.308185)"
       rx="129.2009"
       ry="88.912453" />
    <ellipse
       style="fill:none;stroke:#000000;stroke-width:2.3579;stroke-linejoin:round;stroke-miterlimit:4;stroke-dasharray:none"
       id="path1219-5"
       cx="241.73073"
       cy="150.03976"
       transform="matrix(0.29406107,-0.05398898,0.06123859,0.25924926,57.752314,17.98671)"
       rx="129.2009"
       ry="88.912453" />
    <ellipse
       style="fill:none;stroke:#000000;stroke-width:2.12261;stroke-linejoin:round;stroke-miterlimit:4;stroke-dasharray:none"
       id="path1219-0"
       cx="241.73073"
       cy="150.03976"
       transform="matrix(0.36118759,0.10387263,-0.16788709,0.22346867,98.877126,-38.697107)"
       rx="129.2009"
       ry="88.912453" />
    <ellipse
       style="fill:none;stroke:#000000;stroke-width:2.22507;stroke-linejoin:round;stroke-miterlimit:4;stroke-dasharray:none"
       id="path1219-2"
       cx="241.73073"
       cy="150.03976"
       transform="matrix(0.29822431,-0.05238765,0.04220609,0.29209782,24.31443,-23.902611)"
       rx="129.2009"
       ry="88.912453" />
    <ellipse
       style="fill:none;stroke:#000000;stroke-width:2.51339;stroke-linejoin:round;stroke-miterlimit:4;stroke-dasharray:none"
       id="path1219-37"
       cx="241.73073"
       cy="150.03976"
       transform="matrix(0.2399305,0.11152441,-0.11152441,0.2399305,128.18625,-61.027845)"
       rx="129.2009"
       ry="88.912453" />
  </g>
</svg>
